General
      Complete name : The.Last.Samurai.2003.BRRip.H264.AAC.5.1ch.Gopo.mp4
      Format : MPEG-4
      Format profile : Base Media
      Codec ID : isom
      File size : 2.50 GiB
      Duration : 2h 34mn
      Overall bit rate : 2 318 Kbps
      Encoded date : UTC 2009-12-03 18:13:54
      Tagged date : UTC 2009-12-03 18:13:54
   Video #1
      ID : 1
      Format : AVC
      Format/Info : Advanced Video Codec
      Format profile : High@L4.1
      Format settings, CABAC : Yes
      Format settings, ReFrames : 4 frames
      Codec ID : avc1
      Codec ID/Info : Advanced Video Coding
      Duration : 2h 34mn
      Bit rate mode : Variable
      Bit rate : 1 957 Kbps
      Maximum bit rate : 6 673 Kbps
      Width : 1 280 pixels
      Height : 720 pixels
      Display aspect ratio : 16:9
      Frame rate mode : Constant
      Frame rate : 23.976 fps
      Resolution : 24 bits
      Colorimetry : 4:2:0
      Scan type : Progressive
      Bits/(Pixel*Frame) : 0.089
      Stream size : 2.11 GiB (84%)
      Writing library : x264 core 68 r1183M f21daff
      Encoding settings : cabac=1 / ref=4 / deblock=1:0:0 / analyse=0x3:0x113 / me=umh / subme=8 / psy_rd=1.0:0.0 / mixed_ref=1 / me_range=16 / chroma_me=1 / trellis=2 / 8x8dct=1 / cqm=0 / deadzone=21,11 / chroma_qp_offset=-2 / threads=3 / nr=0 / decimate=1 / mbaff=0 / bframes=3 / b_pyramid=0 / b_adapt=2 / b_bias=0 / direct=3 / wpredb=1 / keyint=250 / keyint_min=25 / scenecut=40 / rc=2pass / bitrate=1957 / ratetol=1.0 / qcomp=0.60 / qpmin=10 / qpmax=51 / qpstep=4 / cplxblur=20.0 / qblur=0.5 / vbv_maxrate=50000 / vbv_bufsize=50000 / ip_ratio=1.40 / pb_ratio=1.30 / aq=1:1.00
      Encoded date : UTC 2009-12-02 20:55:33
      Tagged date : UTC 2009-12-03 18:17:53
   Audio #2
      ID : 2
      Format : AAC
      Format/Info : Advanced Audio Codec
      Format version : Version 4
      Format profile : LC
      Format settings, SBR : No
      Codec ID : 40
      Duration : 2h 34mn
      Bit rate mode : Variable
      Bit rate : 352.8 Kbps
      Maximum bit rate : 431 Kbps
      Channel(s) : 6 channels
      Channel positions : Front: L C R, Rear: L R, LFE
      Sampling rate : 48.0 KHz
      Resolution : 16 bits
      Stream size : 394 MiB (15%)
      Encoded date : UTC 2009-12-03 18:17:25
      Tagged date : UTC 2009-12-03 18:17:53
	Sample : YES
	Subtitle : English,Romanian

PLOT

In the 1870s, Captain Nathan Algren, a cynical veteran of the American Civil war who will work for anyone, is hired by Americans who want lucrative contracts with the Emperor of Japan to train the peasant conscripts for the first standing imperial army in modern warfare using firearms. The imperial Omura cabinet's first priority is to repress a rebellion of traditionalist Samurai -hereditary warriors- who remain devoted to the sacred dynasty but reject the Westernizing policy and even refuse firearms. Yet when his ill-prepared superior force sets out too soon, their panic allows the sword-wielding samurai to crush them. Badly wounded Algren's courageous stand makes the samurai leader Katsumoto spare his life; once nursed to health he learns to know and respect the old Japanese way, and participates as advisor in Katsumoto's failed attempt to save the Bushido tradition, but Omura gets repressive laws enacted- he must now choose to honor his loyalty to one of the embittered sides when the conflict returns to the battlefield...
Director: Edward Zwick
CASTING
      
      Ken Watanabe	... 	Katsumoto
	Tom Cruise	... 	Nathan Algren
	William Atherton	... 	Winchester Rep
	Chad Lindberg	... 	Winchester Rep Assistant
	Ray Godshall Sr.	... 	Convention Hall Attendee
	Billy Connolly	... 	Zebulon Gant
	Tony Goldwyn	... 	Colonel Bagley
	Masato Harada	... 	Omura
	Masashi Odate	... 	Omura's Companion
	John Koyama	... 	Omura's Bodyguard
	Timothy Spall	... 	Simon Graham
	Shichinosuke Nakamura	... 	Emperor Meiji
	Togo Igawa	... 	General Hasegawa
	Satoshi Nikaido	... 	N.C.O.
	Shintaro Wada	... 	Young Recruit

SOURCE: The.Last.Samurai.2003.1080p.BD9.x264-IGUANA.mkv

Notes: For best performance I suggest you to use KMPlayer(find it with google) for playback
I haven't tested the movies on a PS3 or Xbox or other devices than PC because I don't own one of them but feel free to test them if you have the oportunity.
